<mxfile host="app.diagrams.net" modified="2023-10-26T08:59:04.649Z" agent="Mozilla/5.0 (Windows NT 10.0; Win64; x64; rv:109.0) Gecko/20100101 Firefox/115.0" version="22.0.8" etag="6IQ_JXG7cNNUw3v6jh8Y" type="github">
  <diagram name="Page-1" id="xm96BQMJaZXr7WiOAt5G">
    <mxGraphModel>
      <root>
        <mxCell id="0" />
        <mxCell id="1" parent="0" />
      </root>
    </mxGraphModel>
  </diagram>
</mxfile>
